<?xml version="1.0" encoding="utf-8"?>
<!-- Generator: Adobe Illustrator 25.4.0, SVG Export Plug-In . SVG Version: 6.00 Build 0)  -->
<svg version="1.1" id="Layer_1" xmlns="http://www.w3.org/2000/svg" xmlns:xlink="http://www.w3.org/1999/xlink" x="0px" y="0px"
	 viewBox="0 0 50 50" style="enable-background:new 0 0 50 50;" xml:space="preserve">
<style type="text/css">
	.st0{fill:none;stroke:#AE0556;stroke-width:6.2518;stroke-miterlimit:10;}
	.st1{fill:none;stroke:#AE0556;stroke-width:7.5021;stroke-miterlimit:10;}
	.st2{fill:#FFFFFF;}
	.st3{fill:none;stroke:#66CCCC;stroke-width:6.2518;stroke-miterlimit:10;}
	.st4{fill:none;stroke:#66CCCC;stroke-width:7.5021;stroke-miterlimit:10;}
	.st5{fill:none;stroke:#A0A5A9;stroke-width:6.2518;stroke-miterlimit:10;}
	.st6{fill:none;stroke:#A0A5A9;stroke-width:7.5021;stroke-miterlimit:10;}
	.st7{fill:none;stroke:#0099CC;stroke-width:6.2518;stroke-miterlimit:10;}
	.st8{fill:none;stroke:#0099CC;stroke-width:7.5021;stroke-miterlimit:10;}
	.st9{fill:none;stroke:#F3A9BB;stroke-width:6.2518;stroke-miterlimit:10;}
	.st10{fill:none;stroke:#F3A9BB;stroke-width:7.5021;stroke-miterlimit:10;}
	.st11{fill:none;stroke:#000099;stroke-width:6.2518;stroke-miterlimit:10;}
	.st12{fill:none;stroke:#000099;stroke-width:7.5021;stroke-miterlimit:10;}
	.st13{fill:none;stroke:#FFCC00;stroke-width:6.2518;stroke-miterlimit:10;}
	.st14{fill:none;stroke:#FFCC00;stroke-width:7.5021;stroke-miterlimit:10;}
	.st15{fill:none;stroke:#000000;stroke-width:6.2518;stroke-miterlimit:10;}
	.st16{fill:none;stroke:#000000;stroke-width:7.5021;stroke-miterlimit:10;}
	.st17{fill:none;stroke:#996633;stroke-width:6.2518;stroke-miterlimit:10;}
	.st18{fill:none;stroke:#996633;stroke-width:7.5021;stroke-miterlimit:10;}
	.st19{fill:none;stroke:#229611;stroke-width:6.2518;stroke-miterlimit:10;}
	.st20{fill:none;stroke:#229611;stroke-width:7.5021;stroke-miterlimit:10;}
</style>
<g>
	<circle class="st17" cx="25" cy="25" r="17.5"/>
	<path class="st18" d="M0,25c0,0,43.33,0,50,0H0z"/>
</g>
<g>
	<path class="st2" d="M11.11,25.81c0,0.36-0.13,0.67-0.39,0.93c-0.26,0.26-0.57,0.39-0.93,0.39H8.06v-4.29h1.33
		c0.31,0,0.58,0.11,0.81,0.33c0.23,0.22,0.35,0.48,0.35,0.79c0,0.12-0.03,0.25-0.09,0.37s-0.13,0.21-0.22,0.26
		c0.26,0.09,0.46,0.25,0.62,0.47C11.03,25.29,11.11,25.54,11.11,25.81z M9.96,23.96c0-0.15-0.06-0.27-0.17-0.38
		c-0.11-0.1-0.25-0.16-0.4-0.16H8.69v1.07h0.71c0.15,0,0.29-0.05,0.4-0.16C9.91,24.23,9.96,24.11,9.96,23.96z M10.52,25.81
		c0-0.2-0.07-0.37-0.21-0.51c-0.14-0.14-0.31-0.21-0.52-0.21H8.69v1.45h1.11c0.2,0,0.38-0.07,0.52-0.21S10.52,26.02,10.52,25.81z"/>
	<path class="st2" d="M15.63,27.13l-0.64,0l-0.37-1.02h-1.7l-0.38,1.02l-0.63,0l1.57-4.29h0.58L15.63,27.13z M14.42,25.51
		l-0.64-1.75l-0.64,1.75H14.42z"/>
	<path class="st2" d="M19.82,27.13l-0.89,0l-1.97-1.97v1.96h-0.62v-4.29h0.62v1.44l1.72-1.44l0.98,0l-2.25,1.88L19.82,27.13z"/>
	<path class="st2" d="M23.58,27.13h-2.81v-4.29h2.71v0.58h-2.09v1.07h1.52v0.59h-1.52v1.45h2.19V27.13z"/>
	<path class="st2" d="M27.8,27.13l-0.77,0l-1.24-1.85l-0.55,0v1.85h-0.62v-4.29h1.36c0.34,0,0.62,0.12,0.86,0.35
		c0.24,0.24,0.36,0.52,0.36,0.86c0,0.24-0.07,0.46-0.2,0.66c-0.13,0.2-0.31,0.35-0.52,0.45L27.8,27.13z M26.58,24.08
		c0-0.17-0.06-0.32-0.18-0.44c-0.12-0.12-0.26-0.18-0.43-0.18h-0.73v1.23h0.73c0.17,0,0.31-0.06,0.43-0.18
		C26.52,24.39,26.58,24.25,26.58,24.08z"/>
	<path class="st2" d="M31.53,27.13h-2.67v-4.29h0.62v3.67h2.05V27.13z"/>
	<path class="st2" d="M36.65,25c0,0.61-0.22,1.13-0.65,1.56c-0.43,0.43-0.95,0.65-1.56,0.65c-0.6,0-1.12-0.21-1.55-0.65
		c-0.43-0.43-0.65-0.95-0.65-1.56c0-0.61,0.21-1.13,0.64-1.56c0.43-0.43,0.95-0.65,1.55-0.65s1.13,0.21,1.56,0.65
		C36.44,23.87,36.65,24.39,36.65,25z M36.06,25c0-0.45-0.16-0.83-0.47-1.14c-0.31-0.32-0.69-0.47-1.14-0.47
		c-0.44,0-0.82,0.16-1.14,0.47c-0.31,0.31-0.47,0.7-0.47,1.14c0,0.45,0.16,0.83,0.47,1.14c0.31,0.31,0.69,0.47,1.14,0.47
		c0.44,0,0.82-0.16,1.14-0.47C35.91,25.83,36.06,25.45,36.06,25z"/>
	<path class="st2" d="M41.94,25c0,0.61-0.22,1.13-0.65,1.56c-0.43,0.43-0.95,0.65-1.56,0.65c-0.6,0-1.12-0.21-1.55-0.65
		c-0.43-0.43-0.65-0.95-0.65-1.56c0-0.61,0.21-1.13,0.64-1.56c0.43-0.43,0.95-0.65,1.55-0.65s1.13,0.21,1.56,0.65
		C41.72,23.87,41.94,24.39,41.94,25z M41.35,25c0-0.45-0.16-0.83-0.47-1.14c-0.31-0.32-0.69-0.47-1.14-0.47
		c-0.44,0-0.82,0.16-1.14,0.47c-0.31,0.31-0.47,0.7-0.47,1.14c0,0.45,0.16,0.83,0.47,1.14c0.31,0.31,0.69,0.47,1.14,0.47
		c0.44,0,0.82-0.16,1.14-0.47C41.19,25.83,41.35,25.45,41.35,25z"/>
</g>
</svg>
