<?xml version="1.0" encoding="utf-8"?>
<!-- Generator: Adobe Illustrator 25.4.0, SVG Export Plug-In . SVG Version: 6.00 Build 0)  -->
<svg version="1.1" id="Layer_1" xmlns="http://www.w3.org/2000/svg" xmlns:xlink="http://www.w3.org/1999/xlink" x="0px" y="0px"
	 viewBox="0 0 50 50" style="enable-background:new 0 0 50 50;" xml:space="preserve">
<style type="text/css">
	.st0{fill:none;stroke:#DD1414;stroke-width:6.2518;stroke-miterlimit:10;}
	.st1{fill:none;stroke:#DD1414;stroke-width:7.5021;stroke-miterlimit:10;}
	.st2{fill:#FFFFFF;}
</style>
<circle class="st0" cx="25" cy="25" r="17.5"/>
<path class="st1" d="M0,25c0,0,43.33,0,50,0H0z"/>
<g>
	<path class="st2" d="M11.67,26.87c-0.28,0.17-0.55,0.3-0.81,0.37s-0.57,0.11-0.91,0.11c-0.71,0-1.31-0.24-1.81-0.73
		c-0.5-0.48-0.75-1.07-0.75-1.75c0-0.68,0.25-1.26,0.75-1.74c0.5-0.48,1.1-0.73,1.82-0.73c0.33,0,0.64,0.05,0.94,0.14
		c0.23,0.08,0.5,0.19,0.79,0.35v0.77c-0.3-0.21-0.54-0.35-0.73-0.43c-0.27-0.1-0.6-0.15-1-0.15c-0.52,0-0.97,0.18-1.34,0.53
		s-0.55,0.77-0.55,1.27c0,0.5,0.19,0.92,0.56,1.27c0.37,0.35,0.82,0.53,1.33,0.53c0.48,0,0.85-0.07,1.12-0.22
		c0.09-0.05,0.29-0.19,0.61-0.43V26.87z"/>
	<path class="st2" d="M16.27,27.24h-3.12v-4.76h3.01v0.65h-2.32v1.19h1.68v0.66h-1.68v1.6h2.43V27.24z"/>
	<path class="st2" d="M22.07,27.24l-0.71,0l-2.85-3.66v3.66h-0.69v-4.76h0.72l2.86,3.66v-3.66h0.69V27.24z"/>
	<path class="st2" d="M27.42,23.12h-1.47v4.11h-0.69v-4.11h-1.52v-0.65h3.68V23.12z"/>
	<path class="st2" d="M32.57,27.24l-0.85,0l-1.38-2.05l-0.61,0v2.05h-0.69v-4.76h1.5c0.37,0,0.69,0.13,0.96,0.39
		c0.27,0.26,0.4,0.58,0.4,0.96c0,0.27-0.07,0.52-0.22,0.74s-0.34,0.39-0.58,0.5L32.57,27.24z M31.22,23.85
		c0-0.19-0.07-0.35-0.2-0.49s-0.29-0.2-0.48-0.2h-0.81v1.36h0.81c0.19,0,0.35-0.07,0.48-0.2C31.15,24.2,31.22,24.04,31.22,23.85z"/>
	<path class="st2" d="M38.13,27.24l-0.71,0l-0.42-1.14h-1.88l-0.42,1.14l-0.7,0l1.74-4.76h0.65L38.13,27.24z M36.78,25.44
		l-0.71-1.95l-0.71,1.95H36.78z"/>
	<path class="st2" d="M42.2,27.24h-2.96v-4.76h0.69v4.07h2.28V27.24z"/>
</g>
</svg>
