<?xml version="1.0" encoding="utf-8"?>
<!-- Generator: Adobe Illustrator 25.4.0, SVG Export Plug-In . SVG Version: 6.00 Build 0)  -->
<svg version="1.1" id="Layer_1" xmlns="http://www.w3.org/2000/svg" xmlns:xlink="http://www.w3.org/1999/xlink" x="0px" y="0px"
	 viewBox="0 0 50 50" style="enable-background:new 0 0 50 50;" xml:space="preserve">
<style type="text/css">
	.st0{fill:none;stroke:#229611;stroke-width:6.2518;stroke-miterlimit:10;}
	.st1{fill:none;stroke:#229611;stroke-width:7.5021;stroke-miterlimit:10;}
	.st2{fill:#FFFFFF;}
</style>
<circle class="st0" cx="25" cy="25" r="17.5"/>
<path class="st1" d="M0,25c0,0,43.33,0,50,0H0z"/>
<g>
	<path class="st2" d="M11.58,24.99c0,0.66-0.23,1.22-0.68,1.69c-0.45,0.47-1,0.7-1.64,0.7h-1.7v-4.76h1.7c0.64,0,1.19,0.23,1.64,0.7
		C11.35,23.78,11.58,24.33,11.58,24.99z M10.95,24.99c0-0.48-0.17-0.88-0.5-1.22c-0.33-0.34-0.73-0.51-1.2-0.51
		c-0.24,0-0.45,0-0.63,0c-0.18,0-0.3,0-0.38,0v3.47h1.01c0.47,0,0.87-0.17,1.2-0.51C10.78,25.87,10.95,25.47,10.95,24.99z"/>
	<path class="st2" d="M13.82,27.38h-0.69v-4.76h0.69V27.38z"/>
	<path class="st2" d="M18.44,25.99c0,0.43-0.15,0.8-0.46,1.08c-0.31,0.29-0.69,0.43-1.13,0.43c-0.35,0-0.67-0.1-0.96-0.31
		s-0.47-0.47-0.57-0.79l0.65-0.45c0,0.23,0.08,0.42,0.25,0.58c0.17,0.15,0.38,0.23,0.61,0.23c0.25,0,0.46-0.07,0.62-0.21
		c0.17-0.14,0.25-0.33,0.25-0.57c0-0.17-0.05-0.33-0.14-0.46c-0.09-0.14-0.22-0.24-0.37-0.3c-0.15-0.05-0.28-0.1-0.38-0.13
		c-0.1-0.04-0.23-0.08-0.36-0.14c-0.26-0.1-0.47-0.26-0.63-0.47c-0.16-0.21-0.24-0.45-0.24-0.73c0-0.37,0.13-0.67,0.39-0.91
		c0.26-0.24,0.58-0.36,0.96-0.36c0.26,0,0.49,0.06,0.69,0.18s0.37,0.28,0.49,0.5l-0.59,0.4c-0.05-0.11-0.12-0.2-0.23-0.26
		c-0.1-0.06-0.23-0.09-0.36-0.09c-0.18,0-0.33,0.05-0.46,0.14c-0.12,0.1-0.18,0.23-0.18,0.4c0,0.13,0.04,0.24,0.11,0.33
		c0.07,0.09,0.17,0.16,0.29,0.2l0.71,0.24c0.31,0.11,0.56,0.29,0.76,0.56S18.44,25.65,18.44,25.99z"/>
	<path class="st2" d="M23.57,23.26H22.1v4.11h-0.69v-4.11h-1.52v-0.65h3.68V23.26z"/>
	<path class="st2" d="M28.72,27.38l-0.85,0l-1.38-2.05l-0.61,0v2.05h-0.69v-4.76h1.5c0.37,0,0.69,0.13,0.96,0.39
		c0.27,0.26,0.4,0.58,0.4,0.96c0,0.27-0.07,0.52-0.22,0.74s-0.34,0.39-0.58,0.5L28.72,27.38z M27.37,23.99
		c0-0.19-0.07-0.35-0.2-0.49s-0.29-0.2-0.48-0.2h-0.81v1.36h0.81c0.19,0,0.35-0.07,0.48-0.2C27.3,24.33,27.37,24.17,27.37,23.99z"/>
	<path class="st2" d="M31.04,27.38h-0.69v-4.76h0.69V27.38z"/>
	<path class="st2" d="M36.86,27.01c-0.28,0.17-0.55,0.3-0.81,0.37s-0.57,0.11-0.91,0.11c-0.71,0-1.31-0.24-1.81-0.73
		c-0.5-0.48-0.75-1.07-0.75-1.75c0-0.68,0.25-1.26,0.75-1.74c0.5-0.48,1.1-0.73,1.82-0.73c0.33,0,0.64,0.05,0.94,0.14
		c0.23,0.08,0.5,0.19,0.79,0.35v0.77c-0.3-0.21-0.54-0.35-0.73-0.43c-0.27-0.1-0.6-0.15-1-0.15c-0.52,0-0.97,0.18-1.34,0.53
		s-0.55,0.77-0.55,1.27c0,0.5,0.19,0.92,0.56,1.27c0.37,0.35,0.82,0.53,1.33,0.53c0.48,0,0.85-0.07,1.12-0.22
		c0.09-0.05,0.29-0.19,0.61-0.43V27.01z"/>
	<path class="st2" d="M42.02,23.26h-1.47v4.11h-0.69v-4.11h-1.52v-0.65h3.68V23.26z"/>
</g>
</svg>
