<?xml version="1.0" encoding="utf-8"?>
<!-- Generator: Adobe Illustrator 25.4.0, SVG Export Plug-In . SVG Version: 6.00 Build 0)  -->
<svg version="1.1" id="Layer_1" xmlns="http://www.w3.org/2000/svg" xmlns:xlink="http://www.w3.org/1999/xlink" x="0px" y="0px"
	 viewBox="0 0 50 50" style="enable-background:new 0 0 50 50;" xml:space="preserve">
<style type="text/css">
	.st0{fill:none;stroke:#AE0556;stroke-width:6.2518;stroke-miterlimit:10;}
	.st1{fill:none;stroke:#AE0556;stroke-width:7.5021;stroke-miterlimit:10;}
	.st2{fill:#FFFFFF;}
	.st3{fill:none;stroke:#66CCCC;stroke-width:6.2518;stroke-miterlimit:10;}
	.st4{fill:none;stroke:#66CCCC;stroke-width:7.5021;stroke-miterlimit:10;}
	.st5{fill:none;stroke:#A0A5A9;stroke-width:6.2518;stroke-miterlimit:10;}
	.st6{fill:none;stroke:#A0A5A9;stroke-width:7.5021;stroke-miterlimit:10;}
	.st7{fill:none;stroke:#0099CC;stroke-width:6.2518;stroke-miterlimit:10;}
	.st8{fill:none;stroke:#0099CC;stroke-width:7.5021;stroke-miterlimit:10;}
	.st9{fill:none;stroke:#F3A9BB;stroke-width:6.2518;stroke-miterlimit:10;}
	.st10{fill:none;stroke:#F3A9BB;stroke-width:7.5021;stroke-miterlimit:10;}
	.st11{fill:none;stroke:#000099;stroke-width:6.2518;stroke-miterlimit:10;}
	.st12{fill:none;stroke:#000099;stroke-width:7.5021;stroke-miterlimit:10;}
	.st13{fill:none;stroke:#FFCC00;stroke-width:6.2518;stroke-miterlimit:10;}
	.st14{fill:none;stroke:#FFCC00;stroke-width:7.5021;stroke-miterlimit:10;}
	.st15{fill:none;stroke:#000000;stroke-width:6.2518;stroke-miterlimit:10;}
	.st16{fill:none;stroke:#000000;stroke-width:7.5021;stroke-miterlimit:10;}
	.st17{fill:none;stroke:#996633;stroke-width:6.2518;stroke-miterlimit:10;}
	.st18{fill:none;stroke:#996633;stroke-width:7.5021;stroke-miterlimit:10;}
	.st19{fill:none;stroke:#229611;stroke-width:6.2518;stroke-miterlimit:10;}
	.st20{fill:none;stroke:#229611;stroke-width:7.5021;stroke-miterlimit:10;}
</style>
<g>
	<circle class="st5" cx="25" cy="25" r="17.5"/>
	<path class="st6" d="M0,25c0,0,43.33,0,50,0H0z"/>
</g>
<g>
	<path class="st2" d="M14.99,25.92c0,0.34-0.12,0.63-0.37,0.89c-0.24,0.26-0.52,0.39-0.83,0.39c-0.24,0-0.46-0.07-0.66-0.22
		c-0.2-0.15-0.34-0.35-0.43-0.6l0.54-0.32c0,0.14,0.05,0.25,0.15,0.35c0.1,0.09,0.22,0.13,0.37,0.13c0.16,0,0.3-0.06,0.42-0.19
		c0.12-0.12,0.18-0.27,0.18-0.43V22.8h0.62V25.92z"/>
	<path class="st2" d="M20.06,25.43c0,0.52-0.17,0.94-0.52,1.27c-0.35,0.33-0.8,0.49-1.35,0.49c-0.54,0-0.99-0.16-1.34-0.49
		c-0.35-0.32-0.53-0.75-0.53-1.27V22.8h0.62v2.62c0,0.35,0.12,0.64,0.35,0.85c0.23,0.21,0.53,0.32,0.9,0.32
		c0.37,0,0.67-0.11,0.9-0.32s0.35-0.49,0.35-0.84V22.8h0.62V25.43z"/>
	<path class="st2" d="M24.31,25.77c0,0.36-0.13,0.67-0.39,0.93s-0.57,0.39-0.93,0.39h-1.73V22.8h1.33c0.31,0,0.58,0.11,0.81,0.33
		c0.23,0.22,0.35,0.48,0.35,0.79c0,0.12-0.03,0.25-0.09,0.37c-0.06,0.12-0.13,0.21-0.22,0.26c0.26,0.09,0.46,0.25,0.62,0.47
		C24.23,25.25,24.31,25.5,24.31,25.77z M23.16,23.92c0-0.15-0.06-0.27-0.17-0.38c-0.11-0.1-0.25-0.16-0.4-0.16h-0.71v1.07h0.71
		c0.15,0,0.29-0.05,0.4-0.16C23.1,24.19,23.16,24.07,23.16,23.92z M23.72,25.77c0-0.2-0.07-0.37-0.21-0.51
		c-0.14-0.14-0.31-0.21-0.52-0.21h-1.11v1.45h1.11c0.2,0,0.38-0.07,0.52-0.21S23.72,25.97,23.72,25.77z"/>
	<path class="st2" d="M25.91,27.09h-0.62V22.8h0.62V27.09z"/>
	<path class="st2" d="M29.63,27.09h-2.67V22.8h0.62v3.67h2.05V27.09z"/>
	<path class="st2" d="M33.45,27.09h-2.81V22.8h2.71v0.58h-2.09v1.07h1.52v0.59h-1.52v1.45h2.19V27.09z"/>
	<path class="st2" d="M37.3,27.09h-2.81V22.8h2.71v0.58h-2.09v1.07h1.52v0.59h-1.52v1.45h2.19V27.09z"/>
</g>
</svg>
