<?xml version="1.0" encoding="utf-8"?>
<!-- Generator: Adobe Illustrator 25.4.0, SVG Export Plug-In . SVG Version: 6.00 Build 0)  -->
<svg version="1.1" id="Layer_1" xmlns="http://www.w3.org/2000/svg" xmlns:xlink="http://www.w3.org/1999/xlink" x="0px" y="0px"
	 viewBox="0 0 50 50" style="enable-background:new 0 0 50 50;" xml:space="preserve">
<style type="text/css">
	.st0{fill:none;stroke:#AE0556;stroke-width:6.2518;stroke-miterlimit:10;}
	.st1{fill:none;stroke:#AE0556;stroke-width:7.5021;stroke-miterlimit:10;}
	.st2{fill:#FFFFFF;}
	.st3{fill:none;stroke:#229611;stroke-width:6.2518;stroke-miterlimit:10;}
	.st4{fill:none;stroke:#229611;stroke-width:7.5021;stroke-miterlimit:10;}
	.st5{fill:none;stroke:#AE0556;stroke-miterlimit:10;}
</style>
<circle class="st0" cx="25" cy="25" r="17.5"/>
<path class="st1" d="M0,25c0,0,43.33,0,50,0H0z"/>
<g>
	<path class="st2" d="M7.07,27.13H6.45v-3.36l-1.58,1.98l-1.58-1.93v3.31H2.67v-4.29h0.62l1.58,2.01l1.6-2.01h0.61V27.13z"/>
	<path class="st2" d="M10.56,27.13H7.75v-4.29h2.71v0.58H8.37v1.07h1.52v0.59H8.37v1.45h2.19V27.13z"/>
	<path class="st2" d="M14.5,23.43h-1.33v3.71h-0.62v-3.71h-1.37v-0.58h3.32V23.43z"/>
	<path class="st2" d="M18.37,27.13l-0.77,0l-1.24-1.85l-0.55,0v1.85h-0.62v-4.29h1.36c0.34,0,0.62,0.12,0.86,0.35
		c0.24,0.24,0.36,0.52,0.36,0.86c0,0.24-0.07,0.46-0.2,0.66c-0.13,0.2-0.31,0.35-0.52,0.45L18.37,27.13z M17.15,24.08
		c0-0.17-0.06-0.32-0.18-0.44c-0.12-0.12-0.26-0.18-0.43-0.18h-0.73v1.23h0.73c0.17,0,0.31-0.06,0.43-0.18
		C17.09,24.39,17.15,24.25,17.15,24.08z"/>
	<path class="st2" d="M23.4,25c0,0.61-0.22,1.13-0.65,1.56c-0.43,0.43-0.95,0.65-1.56,0.65c-0.6,0-1.12-0.21-1.55-0.65
		C19.22,26.13,19,25.61,19,25s0.21-1.13,0.64-1.56c0.43-0.43,0.95-0.65,1.55-0.65s1.13,0.21,1.56,0.65
		C23.19,23.87,23.4,24.39,23.4,25z M22.81,25c0-0.45-0.16-0.83-0.47-1.14c-0.31-0.32-0.69-0.47-1.14-0.47
		c-0.44,0-0.82,0.16-1.14,0.47c-0.31,0.31-0.47,0.7-0.47,1.14s0.16,0.83,0.47,1.14s0.69,0.47,1.14,0.47c0.44,0,0.82-0.16,1.14-0.47
		S22.81,25.45,22.81,25z"/>
	<path class="st2" d="M26.77,24.13c0,0.37-0.13,0.68-0.38,0.95c-0.25,0.26-0.56,0.4-0.92,0.4h-0.91v1.66h-0.62v-4.29h1.52
		c0.37,0,0.68,0.12,0.94,0.37C26.64,23.46,26.77,23.77,26.77,24.13z M26.16,24.13c0-0.2-0.07-0.37-0.21-0.5s-0.31-0.2-0.51-0.2
		h-0.89v1.46h0.91c0.2,0,0.36-0.07,0.5-0.22C26.09,24.51,26.16,24.33,26.16,24.13z"/>
	<path class="st2" d="M31.56,25c0,0.61-0.22,1.13-0.65,1.56c-0.43,0.43-0.95,0.65-1.56,0.65c-0.6,0-1.12-0.21-1.55-0.65
		c-0.43-0.43-0.65-0.95-0.65-1.56s0.21-1.13,0.64-1.56c0.43-0.43,0.95-0.65,1.55-0.65s1.13,0.21,1.56,0.65
		C31.35,23.87,31.56,24.39,31.56,25z M30.97,25c0-0.45-0.16-0.83-0.47-1.14c-0.31-0.32-0.69-0.47-1.14-0.47
		c-0.44,0-0.82,0.16-1.14,0.47c-0.31,0.31-0.47,0.7-0.47,1.14s0.16,0.83,0.47,1.14s0.69,0.47,1.14,0.47c0.44,0,0.82-0.16,1.14-0.47
		S30.97,25.45,30.97,25z"/>
	<path class="st2" d="M34.7,27.13h-2.67v-4.29h0.62v3.67h2.05V27.13z"/>
	<path class="st2" d="M35.91,27.13h-0.62v-4.29h0.62V27.13z"/>
	<path class="st2" d="M39.91,23.43h-1.33v3.71h-0.62v-3.71h-1.37v-0.58h3.32V23.43z"/>
	<path class="st2" d="M43.21,27.13l-0.64,0l-0.37-1.02h-1.7l-0.38,1.02l-0.63,0l1.57-4.29h0.58L43.21,27.13z M41.99,25.51
		l-0.64-1.75l-0.64,1.75H41.99z"/>
	<path class="st2" d="M47.33,27.13l-0.64,0l-2.57-3.3v3.3h-0.62v-4.29h0.65l2.57,3.3v-3.3h0.62V27.13z"/>
</g>
</svg>
