<?xml version="1.0" encoding="utf-8"?>
<!-- Generator: Adobe Illustrator 25.4.0, SVG Export Plug-In . SVG Version: 6.00 Build 0)  -->
<svg version="1.1" id="Layer_1" xmlns="http://www.w3.org/2000/svg" xmlns:xlink="http://www.w3.org/1999/xlink" x="0px" y="0px"
	 viewBox="0 0 50 50" style="enable-background:new 0 0 50 50;" xml:space="preserve">
<style type="text/css">
	.st0{fill:none;stroke:#AE0556;stroke-width:6.2518;stroke-miterlimit:10;}
	.st1{fill:none;stroke:#AE0556;stroke-width:7.5021;stroke-miterlimit:10;}
	.st2{fill:#FFFFFF;}
	.st3{fill:none;stroke:#66CCCC;stroke-width:6.2518;stroke-miterlimit:10;}
	.st4{fill:none;stroke:#66CCCC;stroke-width:7.5021;stroke-miterlimit:10;}
	.st5{fill:none;stroke:#A0A5A9;stroke-width:6.2518;stroke-miterlimit:10;}
	.st6{fill:none;stroke:#A0A5A9;stroke-width:7.5021;stroke-miterlimit:10;}
	.st7{fill:none;stroke:#0099CC;stroke-width:6.2518;stroke-miterlimit:10;}
	.st8{fill:none;stroke:#0099CC;stroke-width:7.5021;stroke-miterlimit:10;}
	.st9{fill:none;stroke:#F3A9BB;stroke-width:6.2518;stroke-miterlimit:10;}
	.st10{fill:none;stroke:#F3A9BB;stroke-width:7.5021;stroke-miterlimit:10;}
	.st11{fill:none;stroke:#000099;stroke-width:6.2518;stroke-miterlimit:10;}
	.st12{fill:none;stroke:#000099;stroke-width:7.5021;stroke-miterlimit:10;}
	.st13{fill:none;stroke:#FFCC00;stroke-width:6.2518;stroke-miterlimit:10;}
	.st14{fill:none;stroke:#FFCC00;stroke-width:7.5021;stroke-miterlimit:10;}
	.st15{fill:none;stroke:#000000;stroke-width:6.2518;stroke-miterlimit:10;}
	.st16{fill:none;stroke:#000000;stroke-width:7.5021;stroke-miterlimit:10;}
	.st17{fill:none;stroke:#996633;stroke-width:6.2518;stroke-miterlimit:10;}
	.st18{fill:none;stroke:#996633;stroke-width:7.5021;stroke-miterlimit:10;}
	.st19{fill:none;stroke:#229611;stroke-width:6.2518;stroke-miterlimit:10;}
	.st20{fill:none;stroke:#229611;stroke-width:7.5021;stroke-miterlimit:10;}
</style>
<g>
	<circle class="st15" cx="25" cy="25" r="17.5"/>
	<path class="st16" d="M0,25c0,0,43.33,0,50,0H0z"/>
</g>
<g>
	<path class="st2" d="M11.03,27.13l-0.64,0l-2.57-3.3v3.3H7.19v-4.29h0.65l2.57,3.3v-3.3h0.62V27.13z"/>
	<path class="st2" d="M16.52,25c0,0.61-0.22,1.13-0.65,1.56c-0.43,0.43-0.95,0.65-1.56,0.65c-0.6,0-1.12-0.21-1.55-0.65
		c-0.43-0.43-0.65-0.95-0.65-1.56c0-0.61,0.21-1.13,0.64-1.56c0.43-0.43,0.95-0.65,1.55-0.65s1.13,0.21,1.56,0.65
		C16.3,23.87,16.52,24.39,16.52,25z M15.93,25c0-0.45-0.16-0.83-0.47-1.14c-0.31-0.32-0.69-0.47-1.14-0.47
		c-0.44,0-0.82,0.16-1.14,0.47c-0.31,0.31-0.47,0.7-0.47,1.14c0,0.45,0.16,0.83,0.47,1.14c0.31,0.31,0.69,0.47,1.14,0.47
		c0.44,0,0.82-0.16,1.14-0.47C15.77,25.83,15.93,25.45,15.93,25z"/>
	<path class="st2" d="M20.65,27.13l-0.77,0l-1.24-1.85l-0.55,0v1.85h-0.62v-4.29h1.36c0.34,0,0.62,0.12,0.86,0.35
		c0.24,0.24,0.36,0.52,0.36,0.86c0,0.24-0.07,0.46-0.2,0.66c-0.13,0.2-0.31,0.35-0.52,0.45L20.65,27.13z M19.43,24.08
		c0-0.17-0.06-0.32-0.18-0.44c-0.12-0.12-0.26-0.18-0.43-0.18h-0.73v1.23h0.73c0.17,0,0.31-0.06,0.43-0.18
		C19.37,24.39,19.43,24.25,19.43,24.08z"/>
	<path class="st2" d="M25.08,23.42h-1.33v3.71h-0.62v-3.71h-1.37v-0.58h3.32V23.42z"/>
	<path class="st2" d="M29.72,27.13h-0.63V25.1h-2.28v2.03h-0.62v-4.29h0.62v1.67h2.28v-1.67h0.63V27.13z"/>
	<path class="st2" d="M33.63,27.13h-2.81v-4.29h2.71v0.58h-2.09v1.07h1.52v0.59h-1.52v1.45h2.19V27.13z"/>
	<path class="st2" d="M37.85,27.13l-0.77,0l-1.24-1.85l-0.55,0v1.85h-0.62v-4.29h1.36c0.34,0,0.62,0.12,0.86,0.35
		c0.24,0.24,0.36,0.52,0.36,0.86c0,0.24-0.07,0.46-0.2,0.66c-0.13,0.2-0.31,0.35-0.52,0.45L37.85,27.13z M36.63,24.08
		c0-0.17-0.06-0.32-0.18-0.44c-0.12-0.12-0.26-0.18-0.43-0.18h-0.73v1.23h0.73c0.17,0,0.31-0.06,0.43-0.18
		C36.57,24.39,36.63,24.25,36.63,24.08z"/>
	<path class="st2" d="M42.81,27.13l-0.64,0l-2.57-3.3v3.3h-0.62v-4.29h0.65l2.57,3.3v-3.3h0.62V27.13z"/>
</g>
</svg>
