<?xml version="1.0" encoding="utf-8"?>
<!-- Generator: Adobe Illustrator 25.4.0, SVG Export Plug-In . SVG Version: 6.00 Build 0)  -->
<svg version="1.1" id="Layer_1" xmlns="http://www.w3.org/2000/svg" xmlns:xlink="http://www.w3.org/1999/xlink" x="0px" y="0px"
	 viewBox="0 0 50 50" style="enable-background:new 0 0 50 50;" xml:space="preserve">
<style type="text/css">
	.st0{fill:none;stroke:#AE0556;stroke-width:6.2518;stroke-miterlimit:10;}
	.st1{fill:none;stroke:#AE0556;stroke-width:7.5021;stroke-miterlimit:10;}
	.st2{fill:#FFFFFF;}
	.st3{fill:none;stroke:#66CCCC;stroke-width:6.2518;stroke-miterlimit:10;}
	.st4{fill:none;stroke:#66CCCC;stroke-width:7.5021;stroke-miterlimit:10;}
	.st5{fill:none;stroke:#A0A5A9;stroke-width:6.2518;stroke-miterlimit:10;}
	.st6{fill:none;stroke:#A0A5A9;stroke-width:7.5021;stroke-miterlimit:10;}
	.st7{fill:none;stroke:#0099CC;stroke-width:6.2518;stroke-miterlimit:10;}
	.st8{fill:none;stroke:#0099CC;stroke-width:7.5021;stroke-miterlimit:10;}
	.st9{fill:none;stroke:#F3A9BB;stroke-width:6.2518;stroke-miterlimit:10;}
	.st10{fill:none;stroke:#F3A9BB;stroke-width:7.5021;stroke-miterlimit:10;}
	.st11{fill:none;stroke:#000099;stroke-width:6.2518;stroke-miterlimit:10;}
	.st12{fill:none;stroke:#000099;stroke-width:7.5021;stroke-miterlimit:10;}
	.st13{fill:none;stroke:#FFCC00;stroke-width:6.2518;stroke-miterlimit:10;}
	.st14{fill:none;stroke:#FFCC00;stroke-width:7.5021;stroke-miterlimit:10;}
	.st15{fill:none;stroke:#000000;stroke-width:6.2518;stroke-miterlimit:10;}
	.st16{fill:none;stroke:#000000;stroke-width:7.5021;stroke-miterlimit:10;}
	.st17{fill:none;stroke:#996633;stroke-width:6.2518;stroke-miterlimit:10;}
	.st18{fill:none;stroke:#996633;stroke-width:7.5021;stroke-miterlimit:10;}
	.st19{fill:none;stroke:#229611;stroke-width:6.2518;stroke-miterlimit:10;}
	.st20{fill:none;stroke:#229611;stroke-width:7.5021;stroke-miterlimit:10;}
</style>
<g>
	<circle class="st11" cx="25" cy="25" r="17.5"/>
	<path class="st12" d="M0,25c0,0,43.33,0,50,0H0z"/>
</g>
<g>
	<path class="st2" d="M10.28,24.13c0,0.37-0.13,0.68-0.38,0.95s-0.56,0.4-0.92,0.4H8.07v1.66H7.44v-4.29h1.52
		c0.37,0,0.68,0.12,0.94,0.37C10.15,23.46,10.28,23.77,10.28,24.13z M9.67,24.13c0-0.2-0.07-0.37-0.21-0.5
		c-0.14-0.13-0.31-0.2-0.51-0.2H8.07v1.46h0.91c0.2,0,0.36-0.07,0.5-0.22C9.61,24.51,9.67,24.33,9.67,24.13z"/>
	<path class="st2" d="M11.78,27.13h-0.62v-4.29h0.62V27.13z"/>
	<path class="st2" d="M16.67,26.8c-0.25,0.16-0.5,0.27-0.73,0.33c-0.24,0.06-0.51,0.1-0.82,0.1c-0.64,0-1.19-0.22-1.64-0.65
		c-0.45-0.44-0.67-0.96-0.67-1.58c0-0.61,0.22-1.14,0.67-1.57c0.45-0.44,0.99-0.65,1.64-0.65c0.3,0,0.58,0.04,0.85,0.13
		c0.21,0.07,0.45,0.17,0.71,0.31v0.69c-0.27-0.19-0.49-0.32-0.65-0.38c-0.24-0.09-0.54-0.14-0.9-0.14c-0.47,0-0.87,0.16-1.21,0.47
		c-0.33,0.32-0.5,0.7-0.5,1.15s0.17,0.83,0.5,1.15c0.33,0.32,0.73,0.48,1.2,0.48c0.43,0,0.77-0.07,1.01-0.2
		c0.08-0.04,0.26-0.17,0.55-0.38V26.8z"/>
	<path class="st2" d="M21.43,26.8c-0.25,0.16-0.5,0.27-0.73,0.33c-0.24,0.06-0.51,0.1-0.82,0.1c-0.64,0-1.19-0.22-1.64-0.65
		c-0.45-0.44-0.67-0.96-0.67-1.58c0-0.61,0.22-1.14,0.67-1.57c0.45-0.44,0.99-0.65,1.64-0.65c0.3,0,0.58,0.04,0.85,0.13
		c0.21,0.07,0.45,0.17,0.71,0.31v0.69c-0.27-0.19-0.49-0.32-0.65-0.38c-0.24-0.09-0.54-0.14-0.9-0.14c-0.47,0-0.87,0.16-1.21,0.47
		c-0.33,0.32-0.5,0.7-0.5,1.15s0.17,0.83,0.5,1.15c0.33,0.32,0.73,0.48,1.2,0.48c0.43,0,0.77-0.07,1.01-0.2
		c0.08-0.04,0.26-0.17,0.55-0.38V26.8z"/>
	<path class="st2" d="M25.95,27.13l-0.64,0l-0.37-1.02h-1.7l-0.38,1.02l-0.63,0l1.57-4.29h0.58L25.95,27.13z M24.73,25.51
		l-0.64-1.75l-0.64,1.75H24.73z"/>
	<path class="st2" d="M30.29,24.98c0,0.59-0.21,1.1-0.62,1.52c-0.41,0.42-0.9,0.63-1.48,0.63h-1.54v-4.29h1.54
		c0.58,0,1.07,0.21,1.48,0.63C30.08,23.89,30.29,24.39,30.29,24.98z M29.73,24.98c0-0.43-0.15-0.8-0.45-1.1
		c-0.3-0.31-0.66-0.46-1.08-0.46c-0.22,0-0.41,0-0.57,0s-0.27,0-0.34,0v3.13h0.91c0.42,0,0.78-0.15,1.08-0.46
		C29.58,25.78,29.73,25.41,29.73,24.98z"/>
	<path class="st2" d="M31.96,27.13h-0.62v-4.29h0.62V27.13z"/>
	<path class="st2" d="M35.68,27.13h-2.67v-4.29h0.62v3.67h2.05V27.13z"/>
	<path class="st2" d="M39.29,27.13h-2.67v-4.29h0.62v3.67h2.05V27.13z"/>
	<path class="st2" d="M42.56,22.84l-1.34,1.99v2.3H40.6v-2.3l-1.35-1.99l0.75,0l0.9,1.34l0.9-1.34L42.56,22.84z"/>
</g>
</svg>
