<?xml version="1.0" encoding="utf-8"?>
<!-- Generator: Adobe Illustrator 25.4.0, SVG Export Plug-In . SVG Version: 6.00 Build 0)  -->
<svg version="1.1" id="Layer_1" xmlns="http://www.w3.org/2000/svg" xmlns:xlink="http://www.w3.org/1999/xlink" x="0px" y="0px"
	 viewBox="0 0 50 50" style="enable-background:new 0 0 50 50;" xml:space="preserve">
<style type="text/css">
	.st0{fill:none;stroke:#AE0556;stroke-width:6.2518;stroke-miterlimit:10;}
	.st1{fill:none;stroke:#AE0556;stroke-width:7.5021;stroke-miterlimit:10;}
	.st2{fill:#FFFFFF;}
	.st3{fill:none;stroke:#66CCCC;stroke-width:6.2518;stroke-miterlimit:10;}
	.st4{fill:none;stroke:#66CCCC;stroke-width:7.5021;stroke-miterlimit:10;}
	.st5{fill:none;stroke:#A0A5A9;stroke-width:6.2518;stroke-miterlimit:10;}
	.st6{fill:none;stroke:#A0A5A9;stroke-width:7.5021;stroke-miterlimit:10;}
	.st7{fill:none;stroke:#0099CC;stroke-width:6.2518;stroke-miterlimit:10;}
	.st8{fill:none;stroke:#0099CC;stroke-width:7.5021;stroke-miterlimit:10;}
	.st9{fill:none;stroke:#F3A9BB;stroke-width:6.2518;stroke-miterlimit:10;}
	.st10{fill:none;stroke:#F3A9BB;stroke-width:7.5021;stroke-miterlimit:10;}
	.st11{fill:none;stroke:#000099;stroke-width:6.2518;stroke-miterlimit:10;}
	.st12{fill:none;stroke:#000099;stroke-width:7.5021;stroke-miterlimit:10;}
	.st13{fill:none;stroke:#FFCC00;stroke-width:6.2518;stroke-miterlimit:10;}
	.st14{fill:none;stroke:#FFCC00;stroke-width:7.5021;stroke-miterlimit:10;}
	.st15{fill:none;stroke:#000000;stroke-width:6.2518;stroke-miterlimit:10;}
	.st16{fill:none;stroke:#000000;stroke-width:7.5021;stroke-miterlimit:10;}
	.st17{fill:none;stroke:#996633;stroke-width:6.2518;stroke-miterlimit:10;}
	.st18{fill:none;stroke:#996633;stroke-width:7.5021;stroke-miterlimit:10;}
	.st19{fill:none;stroke:#229611;stroke-width:6.2518;stroke-miterlimit:10;}
	.st20{fill:none;stroke:#229611;stroke-width:7.5021;stroke-miterlimit:10;}
</style>
<g>
	<circle class="st7" cx="25" cy="25" r="17.5"/>
	<path class="st8" d="M0,25c0,0,43.33,0,50,0H0z"/>
</g>
<g>
	<path class="st2" d="M13.43,22.84l-1.56,4.29h-0.58l-1.57-4.29l0.64,0l1.22,3.36l1.21-3.36L13.43,22.84z"/>
	<path class="st2" d="M15.13,27.13h-0.62v-4.29h0.62V27.13z"/>
	<path class="st2" d="M20.02,26.8c-0.25,0.16-0.5,0.27-0.73,0.33c-0.24,0.06-0.51,0.1-0.82,0.1c-0.64,0-1.18-0.22-1.63-0.65
		c-0.45-0.44-0.67-0.96-0.67-1.58c0-0.61,0.22-1.14,0.67-1.57c0.45-0.44,0.99-0.65,1.64-0.65c0.3,0,0.58,0.04,0.85,0.13
		c0.21,0.07,0.45,0.17,0.71,0.31v0.69c-0.27-0.19-0.49-0.32-0.65-0.38c-0.24-0.09-0.54-0.14-0.9-0.14c-0.47,0-0.87,0.16-1.21,0.47
		c-0.33,0.32-0.5,0.7-0.5,1.15s0.17,0.83,0.5,1.15c0.33,0.32,0.74,0.48,1.2,0.48c0.43,0,0.77-0.07,1.01-0.2
		c0.08-0.04,0.26-0.17,0.55-0.38V26.8z"/>
	<path class="st2" d="M24.32,23.42h-1.33v3.71h-0.62v-3.71H21v-0.58h3.32V23.42z"/>
	<path class="st2" d="M29.76,25c0,0.61-0.22,1.13-0.65,1.56c-0.43,0.43-0.95,0.65-1.56,0.65c-0.6,0-1.12-0.21-1.55-0.65
		c-0.43-0.43-0.65-0.95-0.65-1.56c0-0.61,0.21-1.13,0.64-1.56c0.43-0.43,0.95-0.65,1.55-0.65c0.61,0,1.13,0.21,1.56,0.65
		C29.54,23.87,29.76,24.39,29.76,25z M29.17,25c0-0.45-0.16-0.83-0.47-1.14c-0.31-0.32-0.69-0.47-1.14-0.47
		c-0.44,0-0.82,0.16-1.14,0.47c-0.31,0.31-0.47,0.7-0.47,1.14c0,0.45,0.16,0.83,0.47,1.14c0.31,0.31,0.69,0.47,1.14,0.47
		c0.44,0,0.82-0.16,1.14-0.47C29.01,25.83,29.17,25.45,29.17,25z"/>
	<path class="st2" d="M33.89,27.13l-0.77,0l-1.24-1.85l-0.55,0v1.85h-0.62v-4.29h1.36c0.34,0,0.62,0.12,0.86,0.35
		s0.36,0.52,0.36,0.86c0,0.24-0.07,0.46-0.2,0.66c-0.13,0.2-0.31,0.35-0.53,0.45L33.89,27.13z M32.67,24.08
		c0-0.17-0.06-0.32-0.18-0.44c-0.12-0.12-0.26-0.18-0.43-0.18h-0.73v1.23h0.73c0.17,0,0.31-0.06,0.43-0.18
		C32.61,24.39,32.67,24.25,32.67,24.08z"/>
	<path class="st2" d="M35.63,27.13h-0.62v-4.29h0.62V27.13z"/>
	<path class="st2" d="M40.29,27.13l-0.64,0l-0.37-1.02h-1.7l-0.38,1.02l-0.63,0l1.57-4.29h0.58L40.29,27.13z M39.07,25.51
		l-0.64-1.75l-0.64,1.75H39.07z"/>
</g>
</svg>
