<?xml version="1.0" encoding="utf-8"?>
<!-- Generator: Adobe Illustrator 25.4.0, SVG Export Plug-In . SVG Version: 6.00 Build 0)  -->
<svg version="1.1" id="Layer_1" xmlns="http://www.w3.org/2000/svg" xmlns:xlink="http://www.w3.org/1999/xlink" x="0px" y="0px"
	 viewBox="0 0 50 50" style="enable-background:new 0 0 50 50;" xml:space="preserve">
<style type="text/css">
	.st0{fill:none;stroke:#AE0556;stroke-width:6.2518;stroke-miterlimit:10;}
	.st1{fill:none;stroke:#AE0556;stroke-width:7.5021;stroke-miterlimit:10;}
	.st2{fill:#FFFFFF;}
	.st3{fill:none;stroke:#66CCCC;stroke-width:6.2518;stroke-miterlimit:10;}
	.st4{fill:none;stroke:#66CCCC;stroke-width:7.5021;stroke-miterlimit:10;}
	.st5{fill:none;stroke:#A0A5A9;stroke-width:6.2518;stroke-miterlimit:10;}
	.st6{fill:none;stroke:#A0A5A9;stroke-width:7.5021;stroke-miterlimit:10;}
	.st7{fill:none;stroke:#0099CC;stroke-width:6.2518;stroke-miterlimit:10;}
	.st8{fill:none;stroke:#0099CC;stroke-width:7.5021;stroke-miterlimit:10;}
	.st9{fill:none;stroke:#F3A9BB;stroke-width:6.2518;stroke-miterlimit:10;}
	.st10{fill:none;stroke:#F3A9BB;stroke-width:7.5021;stroke-miterlimit:10;}
	.st11{fill:none;stroke:#000099;stroke-width:6.2518;stroke-miterlimit:10;}
	.st12{fill:none;stroke:#000099;stroke-width:7.5021;stroke-miterlimit:10;}
	.st13{fill:none;stroke:#FFCC00;stroke-width:6.2518;stroke-miterlimit:10;}
	.st14{fill:none;stroke:#FFCC00;stroke-width:7.5021;stroke-miterlimit:10;}
	.st15{fill:none;stroke:#000000;stroke-width:6.2518;stroke-miterlimit:10;}
	.st16{fill:none;stroke:#000000;stroke-width:7.5021;stroke-miterlimit:10;}
	.st17{fill:none;stroke:#996633;stroke-width:6.2518;stroke-miterlimit:10;}
	.st18{fill:none;stroke:#996633;stroke-width:7.5021;stroke-miterlimit:10;}
	.st19{fill:none;stroke:#229611;stroke-width:6.2518;stroke-miterlimit:10;}
	.st20{fill:none;stroke:#229611;stroke-width:7.5021;stroke-miterlimit:10;}
</style>
<g>
	<circle class="st3" cx="25" cy="25" r="17.5"/>
	<path class="st4" d="M0,25c0,0,43.33,0,50,0H0z"/>
</g>
<g>
	<path class="st2" d="M8.38,22.87l-1.23,4.29H6.54l-0.98-3.03l-0.98,3.03H3.95l-1.22-4.29h0.65l0.9,3.15l0.96-2.96h0.63l0.96,2.95
		l0.9-3.15H8.38z"/>
	<path class="st2" d="M10.24,23.16c0,0.35-0.08,0.65-0.25,0.89c-0.14,0.21-0.27,0.31-0.4,0.31c-0.03,0-0.05-0.01-0.07-0.02
		c0.02-0.03,0.04-0.05,0.05-0.07c0.09-0.14,0.13-0.28,0.13-0.42c0-0.11-0.02-0.22-0.07-0.33s-0.14-0.23-0.26-0.35l0.44-0.44
		L10.24,23.16z"/>
	<path class="st2" d="M13.86,27.16h-2.67v-4.29h0.62v3.67h2.05V27.16z"/>
	<path class="st2" d="M18.99,25.03c0,0.61-0.21,1.13-0.64,1.56c-0.43,0.43-0.95,0.65-1.56,0.65c-0.6,0-1.12-0.21-1.55-0.65
		c-0.43-0.43-0.64-0.95-0.64-1.56c0-0.61,0.21-1.13,0.64-1.56c0.43-0.43,0.95-0.65,1.55-0.65c0.61,0,1.13,0.21,1.56,0.65
		C18.77,23.9,18.99,24.42,18.99,25.03z M18.4,25.03c0-0.45-0.16-0.83-0.47-1.14c-0.31-0.32-0.7-0.47-1.14-0.47
		c-0.44,0-0.82,0.16-1.14,0.47c-0.31,0.31-0.47,0.7-0.47,1.14c0,0.45,0.16,0.83,0.47,1.14c0.31,0.31,0.69,0.47,1.14,0.47
		c0.44,0,0.82-0.16,1.14-0.47C18.24,25.86,18.4,25.48,18.4,25.03z"/>
	<path class="st2" d="M24.27,25.03c0,0.61-0.21,1.13-0.64,1.56c-0.43,0.43-0.95,0.65-1.56,0.65c-0.6,0-1.12-0.21-1.55-0.65
		c-0.43-0.43-0.64-0.95-0.64-1.56c0-0.61,0.21-1.13,0.64-1.56c0.43-0.43,0.95-0.65,1.55-0.65c0.61,0,1.13,0.21,1.56,0.65
		C24.06,23.9,24.27,24.42,24.27,25.03z M23.68,25.03c0-0.45-0.16-0.83-0.47-1.14c-0.31-0.32-0.7-0.47-1.14-0.47
		c-0.44,0-0.82,0.16-1.14,0.47c-0.31,0.31-0.47,0.7-0.47,1.14c0,0.45,0.16,0.83,0.47,1.14c0.31,0.31,0.69,0.47,1.14,0.47
		c0.44,0,0.82-0.16,1.14-0.47C23.53,25.86,23.68,25.48,23.68,25.03z"/>
	<path class="st2" d="M30.25,27.17l-0.71-0.01l-0.17-0.22c-0.16,0.11-0.33,0.19-0.5,0.25s-0.34,0.09-0.5,0.09
		c-0.35,0-0.65-0.12-0.9-0.38c-0.25-0.25-0.38-0.55-0.38-0.9c0-0.23,0.05-0.43,0.14-0.6s0.26-0.35,0.5-0.55
		c-0.11-0.14-0.19-0.26-0.24-0.34c-0.16-0.26-0.24-0.48-0.24-0.65c0-0.31,0.11-0.56,0.32-0.76s0.48-0.3,0.79-0.3
		c0.31,0,0.58,0.1,0.79,0.3s0.32,0.45,0.32,0.76c0,0.26-0.15,0.52-0.46,0.78c-0.1,0.09-0.26,0.2-0.47,0.32l0.89,1.16
		c0.06-0.03,0.1-0.07,0.14-0.13c0.04-0.06,0.06-0.14,0.06-0.24h0.56c0,0.17-0.04,0.33-0.1,0.48c-0.07,0.15-0.16,0.27-0.28,0.35
		L30.25,27.17z M29.02,26.51l-0.94-1.18c-0.19,0.16-0.29,0.25-0.31,0.27c-0.08,0.1-0.12,0.23-0.12,0.4c0,0.2,0.07,0.38,0.2,0.53
		c0.13,0.15,0.3,0.22,0.5,0.22c0.1,0,0.2-0.02,0.31-0.05S28.89,26.6,29.02,26.51z M28.88,23.82c0-0.15-0.04-0.27-0.13-0.36
		c-0.09-0.09-0.21-0.13-0.36-0.13c-0.16,0-0.29,0.05-0.4,0.15c-0.11,0.1-0.17,0.23-0.17,0.38c0,0.09,0.07,0.23,0.2,0.4
		c0.04,0.06,0.11,0.14,0.2,0.24c0.15-0.1,0.26-0.17,0.33-0.23C28.77,24.1,28.88,23.94,28.88,23.82z"/>
	<path class="st2" d="M37.02,26.83c-0.25,0.16-0.5,0.27-0.73,0.33c-0.24,0.06-0.51,0.1-0.82,0.1c-0.64,0-1.19-0.22-1.64-0.65
		c-0.45-0.44-0.67-0.96-0.67-1.58c0-0.61,0.22-1.14,0.67-1.57c0.45-0.44,0.99-0.65,1.64-0.65c0.3,0,0.58,0.04,0.85,0.13
		c0.21,0.07,0.45,0.17,0.71,0.31v0.69c-0.27-0.19-0.49-0.32-0.65-0.38c-0.24-0.09-0.54-0.14-0.9-0.14c-0.47,0-0.87,0.16-1.21,0.47
		c-0.33,0.32-0.5,0.7-0.5,1.15s0.17,0.83,0.5,1.15c0.33,0.32,0.73,0.48,1.2,0.48c0.43,0,0.77-0.07,1.01-0.2
		c0.08-0.04,0.26-0.17,0.55-0.38V26.83z"/>
	<path class="st2" d="M38.62,27.16H38v-4.29h0.62V27.16z"/>
	<path class="st2" d="M43.05,23.45h-1.33v3.71H41.1v-3.71h-1.37v-0.58h3.32V23.45z"/>
	<path class="st2" d="M47.27,22.87l-1.34,1.99v2.3h-0.62v-2.3l-1.35-1.99l0.75,0l0.9,1.34l0.9-1.34L47.27,22.87z"/>
</g>
</svg>
